<?xml version="1.0" standalone="no"?>
<!DOCTYPE svg PUBLIC "-//W3C//DTD SVG 20010904//EN"
 "http://www.w3.org/TR/2001/REC-SVG-20010904/DTD/svg10.dtd">
<svg version="1.0" xmlns="http://www.w3.org/2000/svg"
 width="512.000000pt" height="512.000000pt" viewBox="0 0 512.000000 512.000000"
 preserveAspectRatio="xMidYMid meet">

<g transform="translate(0.000000,512.000000) scale(0.100000,-0.100000)"
fill="#000000" stroke="none">
<path d="M2430 5104 c-187 -50 -316 -249 -283 -437 15 -90 49 -154 118 -223
82 -83 146 -108 275 -109 86 0 101 3 162 32 84 40 151 107 192 193 28 59 31
74 31 165 0 92 -3 106 -31 165 -86 178 -274 265 -464 214z"/>
<path d="M1475 4475 c-50 -18 -91 -62 -105 -114 -6 -24 -9 -142 -8 -312 l3
-273 258 236 c283 258 326 288 454 310 l72 12 -28 35 c-16 20 -40 55 -55 79
l-26 42 -263 0 c-199 -1 -272 -4 -302 -15z"/>
<path d="M3005 4445 c-14 -25 -40 -61 -57 -80 l-30 -35 34 0 c49 0 145 -27
198 -56 26 -14 163 -122 306 -241 l259 -215 3 253 c3 266 -1 305 -40 354 -47
60 -75 65 -375 65 l-271 0 -27 -45z"/>
<path d="M2069 4166 c-25 -6 -60 -21 -76 -32 -17 -10 -170 -146 -341 -302
-259 -236 -313 -290 -326 -325 -12 -33 -86 -544 -86 -595 0 -7 16 4 36 24 21
20 60 47 88 60 44 21 66 24 164 24 61 0 112 4 112 9 0 5 9 77 20 160 l20 151
38 34 c20 18 107 95 192 170 l155 136 5 -321 5 -320 38 50 c41 56 119 121 181
153 255 130 557 63 729 -162 l27 -35 0 313 c0 171 3 312 6 312 4 0 303 -248
304 -254 1 0 22 -89 49 -196 l48 -195 124 -1 c111 -1 131 -3 179 -26 30 -14
67 -37 83 -51 15 -14 27 -22 27 -17 0 26 -153 640 -168 674 -13 32 -77 90
-312 286 -167 139 -315 254 -340 266 -42 18 -73 19 -490 21 -332 2 -457 -1
-491 -11z"/>
<path d="M3200 3187 l0 -167 50 0 c28 0 50 2 50 5 0 3 -16 72 -36 153 -53 214
-64 216 -64 9z"/>
<path d="M1848 3291 c-21 -17 -26 -33 -37 -118 -6 -54 -14 -110 -17 -125 -5
-27 -4 -28 40 -28 l46 0 0 145 c0 80 -2 145 -4 145 -2 0 -14 -9 -28 -19z"/>
<path d="M2481 3149 c-123 -24 -235 -108 -291 -218 l-30 -61 -358 0 c-336 0
-359 -1 -389 -20 -45 -27 -65 -62 -65 -115 0 -53 20 -88 65 -115 30 -19 53
-20 392 -20 l360 0 19 -45 c10 -25 37 -67 61 -93 l43 -48 -77 -39 c-56 -30
-101 -65 -172 -135 -84 -83 -102 -107 -142 -190 -82 -172 -81 -167 -78 -725 3
-549 1 -535 74 -583 l41 -27 595 -3 c636 -4 676 -1 724 44 60 55 58 37 55 597
l-3 512 -27 80 c-37 107 -89 194 -168 279 -63 67 -173 148 -238 175 l-32 13
35 40 c20 21 48 63 62 93 l27 55 354 0 c310 0 358 2 389 17 92 43 98 180 10
233 -30 19 -53 20 -393 20 l-361 0 -18 46 c-25 65 -114 157 -188 194 -90 44
-183 57 -276 39z m191 -248 c127 -87 113 -272 -25 -343 -31 -15 -54 -19 -98
-16 -108 8 -179 84 -179 192 0 76 28 128 88 167 42 27 54 30 113 27 49 -3 75
-10 101 -27z"/>
<path d="M1521 2065 c-177 -212 -331 -401 -342 -419 -15 -25 -39 -160 -99
-545 -97 -619 -95 -605 -81 -659 14 -51 70 -116 122 -143 50 -25 140 -25 195
0 52 24 109 91 122 144 6 23 43 256 83 517 72 472 73 475 105 515 l31 40 6
165 c7 198 28 294 91 425 55 111 123 203 212 283 l69 62 -96 0 -95 0 -323
-385z"/>
<path d="M3183 2368 c99 -97 173 -206 217 -321 43 -110 58 -186 66 -341 l7
-131 62 -70 63 -70 41 -485 c26 -307 47 -500 56 -526 54 -146 255 -193 368
-86 33 31 62 83 71 127 3 17 -16 278 -43 582 -41 468 -51 557 -68 590 -11 21
-181 212 -379 425 l-359 386 -94 1 -93 1 85 -82z"/>
<path d="M2332 362 l3 -199 30 -49 c96 -155 329 -146 411 16 22 42 23 57 24
238 l0 192 -236 0 -235 0 3 -198z"/>
</g>
</svg>
